<svg width="26" height="27" viewBox="0 0 26 27" fill="none" xmlns="http://www.w3.org/2000/svg">
<path d="M15.9993 21.688C17.7033 22.6207 19.2019 21.4903 18.876 19.512L18.2909 15.9599L20.7696 13.4443C22.1482 12.0453 21.5786 10.2121 19.6708 9.92343L16.2453 9.40519L14.7209 6.1894C13.867 4.38806 12.013 4.36869 11.1575 6.17341L9.62554 9.40519L6.19999 9.92343C4.29484 10.2117 3.72066 12.0433 5.10119 13.4443L7.57994 15.9599L6.99479 19.512C6.66935 21.4875 8.16507 22.622 9.87149 21.688L12.9354 20.0109L15.9993 21.688Z" fill="#6C5FBC"/>
<mask id="mask0_1_16751" style="mask-type:luminance" maskUnits="userSpaceOnUse" x="4" y="4" width="18" height="19">
<path d="M15.9993 21.688C17.7033 22.6207 19.2019 21.4903 18.876 19.512L18.2909 15.9599L20.7696 13.4443C22.1482 12.0453 21.5786 10.2121 19.6708 9.92343L16.2453 9.40519L14.7209 6.1894C13.867 4.38806 12.013 4.36869 11.1575 6.17341L9.62554 9.40519L6.19999 9.92343C4.29484 10.2117 3.72066 12.0433 5.10119 13.4443L7.57994 15.9599L6.99479 19.512C6.66935 21.4875 8.16507 22.622 9.87149 21.688L12.9354 20.0109L15.9993 21.688Z" fill="white"/>
</mask>
<g mask="url(#mask0_1_16751)">
</g>
</svg>
